<svg xmlns="http://www.w3.org/2000/svg" version="1.1" xmlns:xlink="http://www.w3.org/1999/xlink" xmlns:svgjs="http://svgjs.dev/svgjs" width="1000" height="1000" viewBox="0 0 1000 1000"><rect width="1000" height="1000" fill="#ff5858"></rect><g transform="matrix(0.7,0,0,0.7,149.57575757575756,427.83309426796353)"><svg viewBox="0 0 396 82" data-background-color="#ff5858" preserveAspectRatio="xMidYMid meet" height="207" width="1000" xmlns="http://www.w3.org/2000/svg" xmlns:xlink="http://www.w3.org/1999/xlink"><defs></defs><g id="tight-bounds" transform="matrix(1,0,0,1,0.2400000000000091,-0.15998671214148885)"><svg viewBox="0 0 395.52 82.32019188793862" height="82.32019188793862" width="395.52"><g><svg viewBox="0 0 511.9770256181782 106.55857350097213" height="82.32019188793862" width="395.52"><g transform="matrix(1,0,0,1,116.45702561817824,34.00313380168503)"><svg viewBox="0 0 395.5199999999999 38.55230589760207" height="38.55230589760207" width="395.5199999999999"><g><svg viewBox="0 0 395.5199999999999 38.55230589760207" height="38.55230589760207" width="395.5199999999999"><g><svg viewBox="0 0 395.5199999999999 38.55230589760207" height="38.55230589760207" width="395.5199999999999"><g transform="matrix(1,0,0,1,0,0)"><svg width="395.5199999999999" viewBox="1.75 -37 385.7200012207031 37.599998474121094" height="38.55230589760207" data-palette-color="#ffffff"><path d="M20.55 0L20.55-4.95 20.1-4.95Q19.65-3.85 19-2.85 18.35-1.85 17.4-1.07 16.45-0.3 15.18 0.15 13.9 0.6 12.3 0.6L12.3 0.6Q9.75 0.6 7.78-0.6 5.8-1.8 4.45-4.1 3.1-6.4 2.43-9.7 1.75-13 1.75-17.15L1.75-17.15Q1.75-26.05 5-30.78 8.25-35.5 15.05-35.5L15.05-35.5Q17.75-35.5 19.8-34.77 21.85-34.05 23.33-32.73 24.8-31.4 25.75-29.55 26.7-27.7 27.25-25.45L27.25-25.45 20.25-23.75Q19.95-24.85 19.58-25.88 19.2-26.9 18.6-27.7 18-28.5 17.1-28.98 16.2-29.45 14.9-29.45L14.9-29.45Q12.05-29.45 10.88-27.1 9.7-24.75 9.7-20.5L9.7-20.5 9.7-14.8Q9.7-10.55 10.98-8 12.25-5.45 15.5-5.45L15.5-5.45Q18.05-5.45 19.3-6.95 20.55-8.45 20.55-10.8L20.55-10.8 20.55-13.35 14.6-13.35 14.6-18.65 27.25-18.65 27.25 0 20.55 0ZM46.1 0L38.2 0 50.2-28.8 38.9-28.8 38.9-22.45 32.55-22.45 32.55-34.9 57.65-34.9 57.65-28.4 46.1 0ZM109.39 0L109.39-14.6 100.59-14.6 100.59 0 93.04 0 93.04-34.9 100.59-34.9 100.59-20.75 109.39-20.75 109.39-34.9 116.94-34.9 116.94 0 109.39 0ZM135.69 0.6L135.69 0.6Q129.19 0.6 125.84-3 122.49-6.6 122.49-12.8L122.49-12.8Q122.49-15.95 123.37-18.48 124.24-21 125.87-22.78 127.49-24.55 129.81-25.48 132.14-26.4 135.04-26.4L135.04-26.4Q137.94-26.4 140.24-25.48 142.54-24.55 144.14-22.85 145.74-21.15 146.62-18.73 147.49-16.3 147.49-13.3L147.49-13.3 147.49-11.1 129.84-11.1 129.84-10.65Q129.84-8.15 131.39-6.63 132.94-5.1 135.94-5.1L135.94-5.1Q138.24-5.1 139.89-5.98 141.54-6.85 142.74-8.3L142.74-8.3 146.74-3.95Q145.24-2.1 142.54-0.75 139.84 0.6 135.69 0.6ZM135.09-21.1L135.09-21.1Q132.69-21.1 131.27-19.63 129.84-18.15 129.84-15.65L129.84-15.65 129.84-15.25 140.24-15.25 140.24-15.65Q140.24-18.2 138.87-19.65 137.49-21.1 135.09-21.1ZM178.59 0L174.34 0Q172.04 0 170.64-1.18 169.24-2.35 168.99-4.55L168.99-4.55 168.74-4.55Q168.04-2 165.96-0.7 163.89 0.6 160.89 0.6L160.89 0.6Q157.14 0.6 154.86-1.43 152.59-3.45 152.59-7.1L152.59-7.1Q152.59-11.15 155.54-13.1 158.49-15.05 164.19-15.05L164.19-15.05 168.34-15.05 168.34-16.35Q168.34-18.65 167.26-19.83 166.19-21 163.64-21L163.64-21Q161.29-21 159.84-20.1 158.39-19.2 157.34-17.75L157.34-17.75 153.29-21.35Q154.59-23.55 157.36-24.98 160.14-26.4 164.49-26.4L164.49-26.4Q169.79-26.4 172.76-23.98 175.74-21.55 175.74-16.65L175.74-16.65 175.74-5.35 178.59-5.35 178.59 0ZM163.69-4.25L163.69-4.25Q165.64-4.25 166.99-5.2 168.34-6.15 168.34-7.95L168.34-7.95 168.34-11.05 164.39-11.05Q159.84-11.05 159.84-8L159.84-8 159.84-7Q159.84-5.65 160.89-4.95 161.94-4.25 163.69-4.25ZM183.39 0L183.39-5.75 191.29-5.75 191.29-31.25 183.39-31.25 183.39-37 198.69-37 198.69-5.75 206.59-5.75 206.59 0 183.39 0ZM236.53 0L226.98 0Q222.98 0 221.03-2.1 219.08-4.2 219.08-7.45L219.08-7.45 219.08-20.05 212.08-20.05 212.08-25.8 216.63-25.8Q218.28-25.8 218.98-26.45 219.68-27.1 219.68-28.85L219.68-28.85 219.68-34.9 226.48-34.9 226.48-25.8 236.53-25.8 236.53-20.05 226.48-20.05 226.48-5.75 236.53-5.75 236.53 0ZM243.23 0L243.23-37 250.63-37 250.63-21.1 250.93-21.1Q251.38-22.2 252.03-23.15 252.68-24.1 253.61-24.83 254.53-25.55 255.76-25.98 256.98-26.4 258.53-26.4L258.53-26.4Q260.38-26.4 261.93-25.78 263.48-25.15 264.58-23.9 265.68-22.65 266.31-20.85 266.93-19.05 266.93-16.7L266.93-16.7 266.93 0 259.53 0 259.53-15.7Q259.53-20.7 255.18-20.7L255.18-20.7Q254.33-20.7 253.51-20.48 252.68-20.25 252.03-19.78 251.38-19.3 251.01-18.6 250.63-17.9 250.63-16.95L250.63-16.95 250.63 0 243.23 0ZM286.03 0.6L286.03 0.6Q282.98 0.6 280.55-0.33 278.13-1.25 276.45-3 274.78-4.75 273.88-7.25 272.98-9.75 272.98-12.9L272.98-12.9Q272.98-16.05 273.88-18.55 274.78-21.05 276.45-22.8 278.13-24.55 280.55-25.48 282.98-26.4 285.98-26.4L285.98-26.4Q290.23-26.4 292.8-24.68 295.38-22.95 296.73-20.1L296.73-20.1 291.03-17Q290.33-18.5 289.2-19.5 288.08-20.5 285.98-20.5L285.98-20.5Q283.43-20.5 282.05-19.03 280.68-17.55 280.68-15L280.68-15 280.68-10.8Q280.68-8.25 282.05-6.78 283.43-5.3 286.08-5.3L286.08-5.3Q288.23-5.3 289.45-6.3 290.68-7.3 291.53-8.9L291.53-8.9 297.13-5.7Q295.73-2.85 293.05-1.13 290.38 0.6 286.03 0.6ZM328.58 0L324.33 0Q322.03 0 320.63-1.18 319.23-2.35 318.98-4.55L318.98-4.55 318.73-4.55Q318.03-2 315.95-0.7 313.88 0.6 310.88 0.6L310.88 0.6Q307.13 0.6 304.85-1.43 302.58-3.45 302.58-7.1L302.58-7.1Q302.58-11.15 305.53-13.1 308.48-15.05 314.18-15.05L314.18-15.05 318.33-15.05 318.33-16.35Q318.33-18.65 317.25-19.83 316.18-21 313.63-21L313.63-21Q311.28-21 309.83-20.1 308.38-19.2 307.33-17.75L307.33-17.75 303.28-21.35Q304.58-23.55 307.35-24.98 310.13-26.4 314.48-26.4L314.48-26.4Q319.78-26.4 322.75-23.98 325.73-21.55 325.73-16.65L325.73-16.65 325.73-5.35 328.58-5.35 328.58 0ZM313.68-4.25L313.68-4.25Q315.63-4.25 316.98-5.2 318.33-6.15 318.33-7.95L318.33-7.95 318.33-11.05 314.38-11.05Q309.83-11.05 309.83-8L309.83-8 309.83-7Q309.83-5.65 310.88-4.95 311.93-4.25 313.68-4.25ZM333.67 0L333.67-5.75 339.62-5.75 339.62-20.05 333.67-20.05 333.67-25.8 347.02-25.8 347.02-18.5 347.37-18.5Q347.72-19.9 348.35-21.23 348.97-22.55 349.95-23.58 350.92-24.6 352.32-25.2 353.72-25.8 355.62-25.8L355.62-25.8 358.07-25.8 358.07-19 352.57-19Q349.82-19 348.42-17.38 347.02-15.75 347.02-13.4L347.02-13.4 347.02-5.75 355.52-5.75 355.52 0 333.67 0ZM375.67 0.6L375.67 0.6Q369.17 0.6 365.82-3 362.47-6.6 362.47-12.8L362.47-12.8Q362.47-15.95 363.35-18.48 364.22-21 365.85-22.78 367.47-24.55 369.8-25.48 372.12-26.4 375.02-26.4L375.02-26.4Q377.92-26.4 380.22-25.48 382.52-24.55 384.12-22.85 385.72-21.15 386.6-18.73 387.47-16.3 387.47-13.3L387.47-13.3 387.47-11.1 369.82-11.1 369.82-10.65Q369.82-8.15 371.37-6.63 372.92-5.1 375.92-5.1L375.92-5.1Q378.22-5.1 379.87-5.98 381.52-6.85 382.72-8.3L382.72-8.3 386.72-3.95Q385.22-2.1 382.52-0.75 379.82 0.6 375.67 0.6ZM375.07-21.1L375.07-21.1Q372.67-21.1 371.25-19.63 369.82-18.15 369.82-15.65L369.82-15.65 369.82-15.25 380.22-15.25 380.22-15.65Q380.22-18.2 378.85-19.65 377.47-21.1 375.07-21.1Z" opacity="1" transform="matrix(1,0,0,1,0,0)" fill="#ffffff" class="undefined-text-0" data-fill-palette-color="primary" id="text-0"></path></svg></g></svg></g></svg></g></svg></g><g><svg viewBox="0 0 107.35575145109593 106.55857350097213" height="106.55857350097213" width="107.35575145109593"><g><svg xmlns="http://www.w3.org/2000/svg" xmlns:xlink="http://www.w3.org/1999/xlink" version="1.1" x="0" y="0" viewBox="1.3587002754211426 1.541675329208374 49.28260040283203 48.916648864746094" enable-background="new 0 0 52 52" xml:space="preserve" height="106.55857350097213" width="107.35575145109593" class="icon-icon-0" data-fill-palette-color="accent" id="icon-0"><path d="M50.191 41.782c-1.359-3.531-5.384-3.802-8.621-3.595-0.443 0.028-0.759 0.243-0.957 0.533-0.098 0.031-0.194 0.073-0.286 0.131-0.084-0.102-0.183-0.199-0.312-0.28-1.241-0.787-2.186-1.75-3.079-2.872 1.247-1.443 2.33-2.851 2.935-3.522 0.427-0.473 0.533-1.309 0-1.768-4.467-3.846-8.593-8.274-12.519-12.711-1.212-1.37-2.376-3.592-4.09-4.415-2.572-1.236-6.543-0.735-9.282-0.928-0.155-0.011-0.291 0.009-0.417 0.043-1.991-1.751-3.986-3.539-5.797-5.478C6.257 5.305 5.267 3.264 3.549 1.847c-1.232-1.016-3.011 0.743-1.768 1.768 1.705 1.405 2.706 3.469 4.217 5.073 1.839 1.953 3.848 3.764 5.861 5.533 0.129 0.113 0.264 0.188 0.401 0.241 0.123 3.52-0.106 6.723 2.054 9.65 2.713 3.676 5.85 6.984 9.302 9.962 1.817 1.568 5.032 5.82 7.552 5.994 1.125 0.078 2.604-1.052 4.047-2.499 1.005 1.251 2.175 2.296 3.538 3.16 0.082 0.052 0.163 0.091 0.243 0.122-1.081 2.279-1.335 4.917 0.228 7.107 1.792 2.51 5.279 3.24 7.94 1.686C50.033 47.968 51.423 44.985 50.191 41.782zM30.537 36.713c-1.708-0.239-5.574-4.737-6.848-5.88-2.284-2.05-4.251-4.343-6.181-6.723-2.387-2.943-2.573-5.722-2.725-9.204 3.348 0.193 6.308 0.191 9.141 2.698 0.446 0.395 0.882 0.827 1.31 1.279-0.181 0.13-0.332 0.307-0.444 0.517-0.016 0.016-0.031 0.031-0.058 0.06 0.038-0.024 0.051-0.031 0.04-0.023l0 0c-0.013 0.009-0.05 0.035-0.114 0.078-0.199 0.151-0.407 0.286-0.601 0.446-0.363 0.298-0.653 0.657-0.921 1.042-0.386 0.554-0.101 1.389 0.448 1.71 0.623 0.364 1.323 0.107 1.711-0.449 0.197-0.282 0.447-0.458 0.739-0.67 0.356-0.259 0.619-0.525 0.829-0.861 0.467 0.557 0.924 1.107 1.371 1.649-0.581 0.537-1.161 1.074-1.741 1.611-1.184 1.095 0.587 2.859 1.767 1.768 0.526-0.486 1.051-0.972 1.577-1.459 0.522 0.615 1.059 1.209 1.646 1.77-0.156 0.188-0.313 0.375-0.469 0.563-0.105 0.127-0.208 0.256-0.321 0.376-0.024 0.025-0.03 0.027-0.048 0.044-1.457 0.128-1.412 2.463 0.146 2.487 1.177 0.019 1.887-0.971 2.559-1.815 1.353 1.215 2.579 2.462 3.911 3.684-0.605 0.745-1.306 1.632-2.064 2.472-0.356-0.316-0.692-0.657-1.003-1.028 0.353-0.383 0.683-0.788 0.979-1.19 0.4-0.544 0.091-1.395-0.448-1.71-0.635-0.371-1.309-0.097-1.71 0.448-0.404 0.549-0.999 1.209-1.55 1.615-0.223 0.165-0.481 0.27-0.699 0.446-0.142 0.114-0.259 0.232-0.377 0.37-0.087 0.101-0.393 0.312-0.118 0.23-1.539 0.457-0.883 2.871 0.664 2.411 0.5-0.149 0.834-0.408 1.163-0.8 0.062-0.074 0.13-0.137 0.199-0.196 0.346 0.4 0.716 0.772 1.095 1.133C32.441 36.364 31.464 36.843 30.537 36.713zM30.609 27.088C30.537 27.148 30.542 27.126 30.609 27.088L30.609 27.088zM45.902 47.485c-1.771 1.029-4.116 0.329-4.966-1.546-0.828-1.825 0.003-3.736 1.051-5.28 1.784-0.12 4.017-0.253 5.319 1.13C49.056 43.649 47.804 46.38 45.902 47.485z" fill="#ffffff" data-fill-palette-color="accent"></path></svg></g></svg></g></svg></g></svg><rect width="395.52" height="82.32019188793862" fill="none" stroke="none" visibility="hidden"></rect></g></svg></g></svg>