<?xml version="1.0" encoding="UTF-8"?>
<svg version="1.1" viewBox="0 0 1000 207" xmlns="http://www.w3.org/2000/svg">
<g transform="translate(-.60606 .40442)">
<svg width="1e3" height="207" data-background-color="#ff5858" viewBox="0 0 396 82" xmlns="http://www.w3.org/2000/svg" xmlns:xlink="http://www.w3.org/1999/xlink">
<g transform="translate(.24 -.15999)">
<svg width="395.52" height="82.32" viewBox="0 0 395.52 82.32019188793862">
<svg width="395.52" height="82.32" viewBox="0 0 511.9770256181782 106.55857350097213">
<g transform="translate(116.46 34.003)">
<svg width="395.52" height="38.552" viewBox="0 0 395.5199999999999 38.55230589760207">
<svg width="395.52" height="38.552" viewBox="0 0 395.5199999999999 38.55230589760207">
<svg width="395.52" height="38.552" viewBox="0 0 395.5199999999999 38.55230589760207">
<g>
<svg width="395.52" height="38.552" data-palette-color="#ffffff" viewBox="1.75 -37 385.7200012207031 37.599998474121094">
<path class="undefined-text-0" d="m20.55 0v-4.95h-0.45q-0.45 1.1-1.1 2.1t-1.6 1.78q-0.95 0.77-2.22 1.22-1.28 0.45-2.88 0.45-2.55 0-4.52-1.2-1.98-1.2-3.33-3.5t-2.02-5.6q-0.68-3.3-0.68-7.45 0-8.9 3.25-13.63 3.25-4.72 10.05-4.72 2.7 0 4.75 0.73 2.05 0.72 3.53 2.04 1.47 1.33 2.42 3.18t1.5 4.1l-7 1.7q-0.3-1.1-0.67-2.13-0.38-1.02-0.98-1.82t-1.5-1.28q-0.9-0.47-2.2-0.47-2.85 0-4.02 2.35-1.18 2.35-1.18 6.6v5.7q0 4.25 1.28 6.8 1.27 2.55 4.52 2.55 2.55 0 3.8-1.5t1.25-3.85v-2.55h-5.95v-5.3h12.65v18.65h-6.7zm25.55 0h-7.9l12-28.8h-11.3v6.35h-6.35v-12.45h25.1v6.5l-11.55 28.4zm63.29 0v-14.6h-8.8v14.6h-7.55v-34.9h7.55v14.15h8.8v-14.15h7.55v34.9h-7.55zm26.3 0.6q-6.5 0-9.85-3.6t-3.35-9.8q0-3.15 0.88-5.68 0.87-2.52 2.5-4.3 1.62-1.77 3.94-2.7 2.33-0.92 5.23-0.92t5.2 0.92q2.3 0.93 3.9 2.63t2.48 4.12q0.87 2.43 0.87 5.43v2.2h-17.65v0.45q0 2.5 1.55 4.02 1.55 1.53 4.55 1.53 2.3 0 3.95-0.88 1.65-0.87 2.85-2.32l4 4.35q-1.5 1.85-4.2 3.2t-6.85 1.35zm-0.6-21.7q-2.4 0-3.82 1.47-1.43 1.48-1.43 3.98v0.4h10.4v-0.4q0-2.55-1.37-4-1.38-1.45-3.78-1.45zm43.5 21.1h-4.25q-2.3 0-3.7-1.18-1.4-1.17-1.65-3.37h-0.25q-0.7 2.55-2.78 3.85-2.07 1.3-5.07 1.3-3.75 0-6.03-2.03-2.27-2.02-2.27-5.67 0-4.05 2.95-6t8.65-1.95h4.15v-1.3q0-2.3-1.08-3.48-1.07-1.17-3.62-1.17-2.35 0-3.8 0.9t-2.5 2.35l-4.05-3.6q1.3-2.2 4.07-3.63 2.78-1.42 7.13-1.42 5.3 0 8.27 2.42 2.98 2.43 2.98 7.33v11.3h2.85v5.35zm-14.9-4.25q1.95 0 3.3-0.95t1.35-2.75v-3.1h-3.95q-4.55 0-4.55 3.05v1q0 1.35 1.05 2.05t2.8 0.7zm19.7 4.25v-5.75h7.9v-25.5h-7.9v-5.75h15.3v31.25h7.9v5.75h-23.2zm53.14 0h-9.55q-4 0-5.95-2.1t-1.95-5.35v-12.6h-7v-5.75h4.55q1.65 0 2.35-0.65t0.7-2.4v-6.05h6.8v9.1h10.05v5.75h-10.05v14.3h10.05v5.75zm6.7 0v-37h7.4v15.9h0.3q0.45-1.1 1.1-2.05t1.58-1.68q0.92-0.72 2.15-1.15 1.22-0.42 2.77-0.42 1.85 0 3.4 0.62 1.55 0.63 2.65 1.88t1.73 3.05q0.62 1.8 0.62 4.15v16.7h-7.4v-15.7q0-5-4.35-5-0.85 0-1.67 0.22-0.83 0.23-1.48 0.7-0.65 0.48-1.02 1.18-0.38 0.7-0.38 1.65v16.95h-7.4zm42.8 0.6q-3.05 0-5.48-0.93-2.42-0.92-4.1-2.67-1.67-1.75-2.57-4.25t-0.9-5.65 0.9-5.65 2.57-4.25q1.68-1.75 4.1-2.68 2.43-0.92 5.43-0.92 4.25 0 6.82 1.72 2.58 1.73 3.93 4.58l-5.7 3.1q-0.7-1.5-1.83-2.5-1.12-1-3.22-1-2.55 0-3.93 1.47-1.37 1.48-1.37 4.03v4.2q0 2.55 1.37 4.02 1.38 1.48 4.03 1.48 2.15 0 3.37-1 1.23-1 2.08-2.6l5.6 3.2q-1.4 2.85-4.08 4.57-2.67 1.73-7.02 1.73zm42.55-0.6h-4.25q-2.3 0-3.7-1.18-1.4-1.17-1.65-3.37h-0.25q-0.7 2.55-2.78 3.85-2.07 1.3-5.07 1.3-3.75 0-6.03-2.03-2.27-2.02-2.27-5.67 0-4.05 2.95-6t8.65-1.95h4.15v-1.3q0-2.3-1.08-3.48-1.07-1.17-3.62-1.17-2.35 0-3.8 0.9t-2.5 2.35l-4.05-3.6q1.3-2.2 4.07-3.63 2.78-1.42 7.13-1.42 5.3 0 8.27 2.42 2.98 2.43 2.98 7.33v11.3h2.85v5.35zm-14.9-4.25q1.95 0 3.3-0.95t1.35-2.75v-3.1h-3.95q-4.55 0-4.55 3.05v1q0 1.35 1.05 2.05t2.8 0.7zm19.99 4.25v-5.75h5.95v-14.3h-5.95v-5.75h13.35v7.3h0.35q0.35-1.4 0.98-2.73 0.62-1.32 1.6-2.35 0.97-1.02 2.37-1.62t3.3-0.6h2.45v6.8h-5.5q-2.75 0-4.15 1.62-1.4 1.63-1.4 3.98v7.65h8.5v5.75h-21.85zm42 0.6q-6.5 0-9.85-3.6t-3.35-9.8q0-3.15 0.88-5.68 0.87-2.52 2.5-4.3 1.62-1.77 3.95-2.7 2.32-0.92 5.22-0.92t5.2 0.92q2.3 0.93 3.9 2.63t2.48 4.12q0.87 2.43 0.87 5.43v2.2h-17.65v0.45q0 2.5 1.55 4.02 1.55 1.53 4.55 1.53 2.3 0 3.95-0.88 1.65-0.87 2.85-2.32l4 4.35q-1.5 1.85-4.2 3.2t-6.85 1.35zm-0.6-21.7q-2.4 0-3.82 1.47-1.43 1.48-1.43 3.98v0.4h10.4v-0.4q0-2.55-1.37-4-1.38-1.45-3.78-1.45z" data-fill-palette-color="primary"/>
</svg>
</g>
</svg>
</svg>
</svg>
</g>
<svg width="107.36" height="106.56" viewBox="0 0 107.35575145109593 106.55857350097213">
<svg class="icon-icon-0" width="107.36" height="106.56" enable-background="new 0 0 52 52" data-fill-palette-color="accent" version="1.1" viewBox="1.3587002754211426 1.541675329208374 49.28260040283203 48.916648864746094" xml:space="preserve" xmlns="http://www.w3.org/2000/svg" xmlns:xlink="http://www.w3.org/1999/xlink"><path d="m50.191 41.782c-1.359-3.531-5.384-3.802-8.621-3.595-0.443 0.028-0.759 0.243-0.957 0.533-0.098 0.031-0.194 0.073-0.286 0.131-0.084-0.102-0.183-0.199-0.312-0.28-1.241-0.787-2.186-1.75-3.079-2.872 1.247-1.443 2.33-2.851 2.935-3.522 0.427-0.473 0.533-1.309 0-1.768-4.467-3.846-8.593-8.274-12.519-12.711-1.212-1.37-2.376-3.592-4.09-4.415-2.572-1.236-6.543-0.735-9.282-0.928-0.155-0.011-0.291 9e-3 -0.417 0.043-1.991-1.751-3.986-3.539-5.797-5.478-1.509-1.615-2.499-3.656-4.217-5.073-1.232-1.016-3.011 0.743-1.768 1.768 1.705 1.405 2.706 3.469 4.217 5.073 1.839 1.953 3.848 3.764 5.861 5.533 0.129 0.113 0.264 0.188 0.401 0.241 0.123 3.52-0.106 6.723 2.054 9.65 2.713 3.676 5.85 6.984 9.302 9.962 1.817 1.568 5.032 5.82 7.552 5.994 1.125 0.078 2.604-1.052 4.047-2.499 1.005 1.251 2.175 2.296 3.538 3.16 0.082 0.052 0.163 0.091 0.243 0.122-1.081 2.279-1.335 4.917 0.228 7.107 1.792 2.51 5.279 3.24 7.94 1.686 2.869-1.676 4.259-4.659 3.027-7.862zm-19.654-5.069c-1.708-0.239-5.574-4.737-6.848-5.88-2.284-2.05-4.251-4.343-6.181-6.723-2.387-2.943-2.573-5.722-2.725-9.204 3.348 0.193 6.308 0.191 9.141 2.698 0.446 0.395 0.882 0.827 1.31 1.279-0.181 0.13-0.332 0.307-0.444 0.517-0.016 0.016-0.031 0.031-0.058 0.06 0.038-0.024 0.051-0.031 0.04-0.023-0.013 9e-3 -0.05 0.035-0.114 0.078-0.199 0.151-0.407 0.286-0.601 0.446-0.363 0.298-0.653 0.657-0.921 1.042-0.386 0.554-0.101 1.389 0.448 1.71 0.623 0.364 1.323 0.107 1.711-0.449 0.197-0.282 0.447-0.458 0.739-0.67 0.356-0.259 0.619-0.525 0.829-0.861 0.467 0.557 0.924 1.107 1.371 1.649-0.581 0.537-1.161 1.074-1.741 1.611-1.184 1.095 0.587 2.859 1.767 1.768 0.526-0.486 1.051-0.972 1.577-1.459 0.522 0.615 1.059 1.209 1.646 1.77-0.156 0.188-0.313 0.375-0.469 0.563-0.105 0.127-0.208 0.256-0.321 0.376-0.024 0.025-0.03 0.027-0.048 0.044-1.457 0.128-1.412 2.463 0.146 2.487 1.177 0.019 1.887-0.971 2.559-1.815 1.353 1.215 2.579 2.462 3.911 3.684-0.605 0.745-1.306 1.632-2.064 2.472-0.356-0.316-0.692-0.657-1.003-1.028 0.353-0.383 0.683-0.788 0.979-1.19 0.4-0.544 0.091-1.395-0.448-1.71-0.635-0.371-1.309-0.097-1.71 0.448-0.404 0.549-0.999 1.209-1.55 1.615-0.223 0.165-0.481 0.27-0.699 0.446-0.142 0.114-0.259 0.232-0.377 0.37-0.087 0.101-0.393 0.312-0.118 0.23-1.539 0.457-0.883 2.871 0.664 2.411 0.5-0.149 0.834-0.408 1.163-0.8 0.062-0.074 0.13-0.137 0.199-0.196 0.346 0.4 0.716 0.772 1.095 1.133-0.951 0.752-1.928 1.231-2.855 1.101zm0.072-9.625c-0.072 0.06-0.067 0.038 0 0zm15.293 20.397c-1.771 1.029-4.116 0.329-4.966-1.546-0.828-1.825 3e-3 -3.736 1.051-5.28 1.784-0.12 4.017-0.253 5.319 1.13 1.75 1.86 0.498 4.591-1.404 5.696z" data-fill-palette-color="accent"/></svg>
</svg>
</svg>
</svg>
<rect width="395.52" height="82.32" fill="none" visibility="hidden"/>
</g>
</svg>
</g>
</svg>
